<svg xmlns="http://www.w3.org/2000/svg" style="display:none">
  <symbol id="sun" viewBox="0 0 512 512" fill="currentColor">
    <g transform="translate(0,512) scale(0.1,-0.1)">
      <path d="M2488 5099 c-23 -12 -46 -35 -58 -59 -19 -36 -20 -58 -20 -312 0 -247 2 -277 19 -308 29 -55 64 -75 131 -75 67 0 102 20 131 75 17 31 19 61 19 308 0 254 -1 276 -20 312 -37 73 -127 99 -202 59z"/>
      <path d="M795 4400 c-11 -4 -33 -22 -49 -39 -40 -42 -48 -124 -18 -173 12 -18 103 -115 204 -215 149 -148 190 -183 223 -192 113 -30 214 72 184 184 -9 32 -45 75 -182 214 -211 213 -235 231 -296 230 -25 0 -55 -4 -66 -9z"/>
      <path d="M4174 4381 c-21 -16 -116 -107 -211 -202 -139 -141 -173 -182 -182 -214 -30 -113 72 -214 184 -184 32 9 76 46 223 192 101 100 192 197 204 215 25 41 22 125 -8 165 -46 63 -145 76 -210 28z"/>
      <path d="M2335 3815 c-456 -85 -837 -415 -985 -855 -79 -235 -80 -553 -3 -789 146 -449 536 -787 997 -866 116 -20 318 -19 436 1 462 79 847 416 994 869 76 234 76 536 0 770 -118 365 -387 653 -744 799 -143 59 -241 77 -435 82 -131 2 -202 -1 -260 -11z m485 -315 c336 -99 591 -358 682 -692 20 -71 23 -107 23 -248 0 -141 -3 -177 -23 -248 -92 -336 -355 -601 -688 -693 -57 -15 -118 -23 -217 -26 -150 -6 -212 2 -341 43 -303 97 -542 347 -637 669 -21 71 -24 100 -24 255 0 153 3 185 23 254 90 311 323 561 619 665 122 43 179 51 348 47 129 -3 175 -8 235 -26z"/>
      <path d="M78 2689 c-43 -22 -78 -81 -78 -129 0 -50 35 -107 80 -130 36 -19 58 -20 312 -20 300 0 317 3 363 64 28 38 28 134 0 172 -46 61 -62 64 -365 64 -254 -1 -278 -2 -312 -21z"/>
      <path d="M4420 2691 c-55 -29 -75 -64 -75 -131 0 -67 20 -102 75 -131 31 -17 61 -19 308 -19 254 0 276 1 312 20 45 23 80 80 80 130 0 50 -35 107 -80 130 -36 19 -58 20 -312 20 -247 0 -277 -2 -308 -19z"/>
      <path d="M1146 1335 c-29 -10 -89 -63 -218 -192 -99 -98 -188 -193 -200 -211 -16 -26 -19 -44 -16 -88 4 -47 10 -61 41 -91 30 -31 44 -37 91 -41 43 -3 62 0 88 16 18 12 115 103 215 204 148 150 183 190 192 224 31 117 -79 220 -193 179z"/>
      <path d="M3877 1336 c-51 -19 -73 -40 -92 -91 -14 -35 -15 -49 -5 -86 10 -37 38 -70 183 -218 95 -95 190 -186 211 -202 65 -48 164 -35 210 28 21 29 32 98 22 140 -8 30 -362 395 -406 418 -42 21 -83 25 -123 11z"/>
      <path d="M2494 766 c-17 -7 -42 -29 -55 -47 -24 -34 -24 -37 -27 -316 -3 -268 -2 -284 18 -322 23 -46 80 -81 130 -81 50 0 107 35 130 80 19 36 20 58 20 312 0 247 -2 277 -19 308 -10 19 -30 43 -44 54 -33 24 -112 31 -153 12z"/>
    </g>
  </symbol>
  <symbol id="moon" viewBox="0 0 512 512" fill="currentColor">
    <g transform="translate(0,512) scale(0.1,-0.1)">
      <path d="M1719 4922 c-307 -123 -565 -290 -803 -522 -473 -460 -728 -1032 -753 -1690 -32 -858 389 -1669 1113 -2146 864 -570 2005 -532 2839 95 114 86 318 280 410 391 164 198 304 436 400 680 51 132 43 194 -36 253 -46 33 -94 32 -219 -6 -226 -68 -417 -97 -652 -97 -471 0 -915 151 -1303 443 -103 78 -314 289 -392 392 -294 391 -443 829 -443 1308 0 231 29 422 97 647 38 125 39 174 6 219 -60 79 -127 88 -264 33z m-125 -479 c-39 -207 -43 -551 -9 -773 115 -748 540 -1384 1179 -1763 501 -296 1104 -409 1674 -313 39 7 72 10 72 6 0 -15 -96 -167 -163 -257 -467 -628 -1256 -953 -2031 -838 -775 115 -1427 643 -1700 1378 -299 803 -86 1714 538 2304 54 51 135 121 181 155 81 60 250 168 265 168 4 0 1 -30 -6 -67z"/>
    </g>
  </symbol>
  <symbol id="whatsapp" viewBox="0 0 24 24">
    <path d="M21 11.5a8.38 8.38 0 0 1-.9 3.8 8.5 8.5 0 0 1-7.6 4.7 8.38 8.38 0 0 1-3.8-.9L3 21l1.9-5.7a8.38 8.38 0 0 1-.9-3.8 8.5 8.5 0 0 1 4.7-7.6 8.38 8.38 0 0 1 3.8-.9h.5a8.48 8.48 0 0 1 8 8v.5z"/>
  </symbol>
  <symbol id="email" viewBox="0 0 24 24">
    <path d="M4 4h16c1.1 0 2 .9 2 2v12c0 1.1-.9 2-2 2H4c-1.1 0-2-.9-2-2V6c0-1.1.9-2 2-2z"/>
    <polyline points="22,6 12,13 2,6"/>
  </symbol>
  <symbol id="location" viewBox="0 0 24 24">
    <path d="M21 10c0 7-9 13-9 13s-9-6-9-13a9 9 0 0 1 18 0z"/>
    <circle cx="12" cy="10" r="3"/>
  </symbol>
  <symbol id="discord" viewBox="0 0 24 24" fill="currentColor">
    <path d="M20.317 4.37a19.791 19.791 0 00-4.885-1.515.074.074 0 00-.079.037c-.21.375-.444.864-.608 1.25a18.27 18.27 0 00-5.487 0 12.64 12.64 0 00-.617-1.25.077.077 0 00-.079-.037A19.736 19.736 0 003.677 4.37a.07.07 0 00-.032.027C.533 9.046-.32 13.58.099 18.057a.082.082 0 00.031.057 19.9 19.9 0 005.993 3.03.078.078 0 00.084-.028 14.09 14.09 0 001.226-1.994.076.076 0 00-.041-.106 13.107 13.107 0 01-1.872-.892.077.077 0 01-.008-.128 10.2 10.2 0 00.372-.292.074.074 0 01.077-.01c3.928 1.793 8.18 1.793 12.062 0a.074.074 0 01.078.01c.12.098.246.198.373.292a.077.077 0 01-.006.127 12.299 12.299 0 01-1.873.892.077.077 0 00-.041.107c.36.698.772 1.362 1.225 1.993a.076.076 0 00.084.028 19.839 19.839 0 006.002-3.03.077.077 0 00.032-.054c.5-5.177-.838-9.674-3.549-13.66a.061.061 0 00-.031-.03zM8.02 15.33c-1.183 0-2.157-1.085-2.157-2.419 0-1.333.956-2.419 2.157-2.419 1.21 0 2.176 1.095 2.157 2.42 0 1.333-.956 2.418-2.157 2.418zm7.975 0c-1.183 0-2.157-1.085-2.157-2.419 0-1.333.955-2.419 2.157-2.419 1.21 0 2.176 1.095 2.157 2.42 0 1.333-.946 2.418-2.157 2.418z"/>
  </symbol>
  <symbol id="github" viewBox="0 0 24 24" fill="currentColor">
    <path d="M12 0C5.37 0 0 5.37 0 12c0 5.31 3.435 9.795 8.205 11.385.6.105.825-.255.825-.57 0-.285-.015-1.23-.015-2.235-3.015.555-3.795-.735-4.035-1.41-.135-.345-.72-1.41-1.23-1.695-.42-.225-1.02-.78-.015-.795.945-.015 1.62.87 1.845 1.23 1.08 1.815 2.805 1.305 3.495.99.105-.78.42-1.305.765-1.605-2.67-.3-5.46-1.335-5.46-5.925 0-1.305.465-2.385 1.23-3.225-.12-.3-.54-1.53.12-3.18 0 0 1.005-.315 3.3 1.23.96-.27 1.98-.405 3-.405s2.04.135 3 .405c2.295-1.56 3.3-1.23 3.3-1.23.66 1.65.24 2.88.12 3.18.765.84 1.23 1.905 1.23 3.225 0 4.605-2.805 5.625-5.475 5.925.435.375.81 1.095.81 2.22 0 1.605-.015 2.895-.015 3.3 0 .315.225.69.825.57A12.02 12.02 0 0024 12c0-6.63-5.37-12-12-12z"/>
  </symbol>
  <symbol id="instagram" viewBox="0 0 24 24" fill="currentColor">
    <path d="M12 2.163c3.204 0 3.584.012 4.85.07 3.252.148 4.771 1.691 4.919 4.919.058 1.265.069 1.645.069 4.849 0 3.205-.012 3.584-.069 4.849-.149 3.225-1.664 4.771-4.919 4.919-1.266.058-1.644.07-4.85.07-3.204 0-3.584-.012-4.849-.07-3.26-.149-4.771-1.699-4.919-4.92-.058-1.265-.07-1.644-.07-4.849 0-3.204.013-3.583.07-4.849.149-3.227 1.664-4.771 4.919-4.919 1.266-.057 1.645-.069 4.849-.069zM12 0C8.741 0 8.333.014 7.053.072 2.695.272.273 2.69.073 7.052.014 8.333 0 8.741 0 12c0 3.259.014 3.668.072 4.948.2 4.358 2.618 6.78 6.98 6.98C8.333 23.986 8.741 24 12 24c3.259 0 3.668-.014 4.948-.072 4.354-.2 6.782-2.618 6.979-6.98.059-1.28.073-1.689.073-4.948 0-3.259-.014-3.667-.072-4.947-.196-4.354-2.617-6.78-6.979-6.98C15.668.014 15.259 0 12 0zm0 5.838a6.162 6.162 0 100 12.324 6.162 6.162 0 000-12.324zM12 16a4 4 0 110-8 4 4 0 010 8zm6.406-11.845a1.44 1.44 0 100 2.881 1.44 1.44 0 000-2.881z"/>
  </symbol>
  <symbol id="linkedin" viewBox="0 0 24 24" fill="currentColor">
    <path d="M20.447 20.452h-3.554v-5.569c0-1.328-.027-3.037-1.852-3.037-1.853 0-2.136 1.445-2.136 2.939v5.667H9.351V9h3.414v1.561h.046c.477-.9 1.637-1.85 3.37-1.85 3.601 0 4.267 2.37 4.267 5.455v6.286zM5.337 7.433a2.062 2.062 0 01-2.063-2.065 2.064 2.064 0 112.063 2.065zm1.782 13.019H3.555V9h3.564v11.452zM22.225 0H1.771C.792 0 0 .774 0 1.729v20.542C0 23.227.792 24 1.771 24h20.451C23.2 24 24 23.227 24 22.271V1.729C24 .774 23.2 0 22.222 0h.003z"/>
  </symbol>
  <symbol id="repo-html" viewBox="0 0 24 24">
    <path d="M1.5 0h21l-1.91 21.563L11.977 24l-8.565-2.438L1.5 0z" fill="#E34F26"/>
  </symbol>
  <symbol id="repo-css" viewBox="0 0 24 24">
    <path d="M1.5 0h21l-1.91 21.563L11.977 24l-8.565-2.438L1.5 0z" fill="#1572B6"/>
  </symbol>
  <symbol id="repo-javascript" viewBox="0 0 24 24">
    <rect x="2" y="2" width="20" height="20" rx="3" fill="#F7DF1E"/>
  </symbol>
  <symbol id="repo-typescript" viewBox="0 0 24 24">
    <rect x="2" y="2" width="20" height="20" rx="3" fill="#3178C6"/>
  </symbol>
  <symbol id="repo-python" viewBox="0 0 24 24">
    <path d="M12 2C6.48 2 2 6.48 2 12s4.48 10 10 10 10-4.48 10-10S17.52 2 12 2z" fill="#3776AB"/>
    <path d="M9 11l6-3v5l-6 3v-5z" fill="#FFD43B"/>
  </symbol>
  <symbol id="repo-java" viewBox="0 0 24 24">
    <circle cx="12" cy="12" r="10" fill="#007396"/>
  </symbol>
  <symbol id="repo-shell" viewBox="0 0 24 24">
    <path d="M12 2C6.48 2 2 6.48 2 12s4.48 10 10 10 10-4.48 10-10S17.52 2 12 2zm-2 13l-2-2 3-3-3-3 2-2 5 5-5 5z" fill="#4EAA25"/>
  </symbol>
  <symbol id="repo-lua" viewBox="0 0 128 128">
    <circle cx="64" cy="64" r="49" fill="#000080"/>
    <circle cx="113" cy="15" r="14.3" fill="#000080"/>
    <circle cx="84" cy="43.7" r="14.3" fill="#000080"/>
  </symbol>
  <symbol id="repo-c" viewBox="0 0 24 24">
    <circle cx="12" cy="12" r="10" fill="#00599C"/>
  </symbol>
  <symbol id="repo-cpp" viewBox="0 0 24 24">
    <circle cx="12" cy="12" r="10" fill="#00599C"/>
  </symbol>
  <symbol id="repo-rust" viewBox="0 0 24 24">
    <circle cx="12" cy="12" r="10" fill="#DEA584"/>
  </symbol>
  <symbol id="repo-go" viewBox="0 0 24 24">
    <circle cx="12" cy="12" r="10" fill="#00ADD8"/>
  </symbol>
  <symbol id="repo-default" viewBox="0 0 24 24">
    <circle cx="12" cy="12" r="10" fill="#888"/>
  </symbol>
</svg>
